<?xml version="1.0" encoding="UTF-8" standalone="no"?>
<!DOCTYPE svg PUBLIC "-//W3C//DTD SVG 1.1//EN" "http://www.w3.org/Graphics/SVG/1.1/DTD/svg11.dtd">
<svg width="100%" height="100%" viewBox="0 0 10403 8289" version="1.1" xmlns="http://www.w3.org/2000/svg" xmlns:xlink="http://www.w3.org/1999/xlink" xml:space="preserve" xmlns:serif="http://www.serif.com/" style="fill-rule:evenodd;clip-rule:evenodd;stroke-linejoin:round;stroke-miterlimit:2;">
    <g transform="matrix(4.16667,0,0,4.16667,-18502.5,-4968.34)">
        <path d="M6055.47,1192.51C6088.07,1243.54 6123.77,1295.55 6137.47,1355.24C6131.48,1355.96 6119.36,1357.49 6113.33,1358.29C6097.12,1364.21 6080.91,1370 6064.63,1375.61C6057.49,1377.7 6043.3,1381.87 6036.14,1383.88C6039.92,1319.93 6046.35,1255.97 6055.47,1192.51Z" style="fill:rgb(102,191,114);"/>
    </g>
    <g transform="matrix(4.16667,0,0,4.16667,-18502.5,-4968.34)">
        <path d="M6542.01,2590.34C6564.32,2589.95 6580.61,2608.15 6598.18,2619.24C6604.13,2675.46 6593.68,2731.87 6572.75,2784.11C6555.43,2826.95 6540.9,2877.25 6497,2900.67C6483.28,2867.95 6492.35,2831.37 6487.62,2797.12C6486.33,2726.26 6490.1,2644.34 6542.01,2590.34Z" style="fill:rgb(102,191,114);"/>
    </g>
    <path d="M4797.37,8176.91C4588.7,8044.83 4322.37,7842.58 4207.66,7618.99C3999.78,7256.95 3992.45,6797.24 4165.2,6420.45C4322.7,6090.24 4620.95,5828.37 4968.87,5716.49C5313.2,5627.2 5703.03,5651.62 6009.87,5842.82C6260.32,5994.91 6466.91,6228.95 6567.95,6504.7C6833.66,7089.49 6544.78,7842.28 5977.45,8129.74C5620.2,8332.33 5172.53,8331.99 4797.37,8176.91ZM4817.56,8121.16C4966.73,8199.95 5123.74,8221.7 5301.57,8221.7C5311.91,8085.99 5311.28,7949.53 5309.53,7813.82C5016.66,7797.12 4736.2,7616.95 4607.45,7352.16C4552.33,7245.53 4534.99,7125.53 4511.95,7009.54C4373.53,7027.95 4226.07,7006.2 4093.7,7032.29C4081.62,7204.07 4147.57,7378.91 4219.08,7535.08C4338.45,7775.78 4597.77,8005.07 4817.56,8121.16ZM6555.87,6596.7C6431.78,6283.45 6214.2,5994.57 5903.99,5847.78C5740.49,5776.58 5566.95,5718.74 5386.78,5720.78C5383.45,5869.53 5381.07,6017.95 5379.45,6166.7C5546.28,6190.83 5713.37,6241.7 5842.82,6354.66C6058.03,6484.04 6146.7,6736.7 6170.7,6974.45C6315.45,6981.78 6460.58,6982.41 6605.32,6980.78C6602.95,6851.12 6584.95,6722.7 6555.87,6596.7ZM4399.91,6153.37C4216.37,6383.12 4085.74,6665.2 4084.33,6963.74C4229.12,6967.41 4373.87,6971.12 4518.62,6971.74C4537.7,6806.28 4582.49,6638.78 4684.37,6504.37C4841.2,6309.82 5076.24,6178.45 5328.62,6168.74C5327.66,6019.03 5328.62,5868.87 5327.95,5719.08C4975.33,5723.49 4629.87,5886.24 4399.91,6153.37ZM5848.41,6419.49C5712.7,6314.83 5554.24,6241.99 5381.83,6228.62C5376.74,6388.7 5375.45,6548.87 5379.12,6709.04C5520.12,6731.74 5621.82,6837.62 5652.91,6975.08C5715.41,6976.08 5778.28,6977.16 5841.12,6977.79C5929.33,6978.12 6017.62,6977.79 6105.82,6976.78C6105.2,6763.54 6001.57,6563.95 5848.41,6419.49ZM4571.41,6970.45C4735.53,6974.78 4899.7,6976.08 5063.87,6969.08C5076.24,6827.62 5188.91,6736.37 5320.95,6709.04C5331.62,6548.53 5326.24,6387.41 5326.99,6226.58C4937.49,6241.99 4567.41,6566.53 4571.41,6970.45ZM5764.83,7695.24C5641.49,7762.66 5504.82,7804.16 5364.37,7814.91C5360.03,7950.95 5360.03,8087.28 5364.7,8223.37C6001.57,8237.78 6589.58,7682.53 6601.32,7043.58C6457.53,7042.28 6314.16,7041.95 6170.7,7043.24C6142.7,7307.7 5997.91,7560.49 5764.83,7695.24ZM5844.45,7035.28C5782.91,7034.32 5721.45,7033.53 5659.91,7033.24C5615.78,7107.45 5583.33,7202.16 5496.12,7235.53C5453.99,7263.32 5392.16,7269.57 5368.03,7318.49C5351.95,7462.78 5361.66,7608.62 5361.03,7753.74C5500.74,7750.08 5638.16,7712.24 5756.24,7636.66C5940.12,7491.87 6090.45,7289.7 6104.87,7048.62C6018.95,7034.32 5931.37,7036.57 5844.45,7035.28ZM4570.12,7026.58C4583.16,7409.7 4924.16,7761.99 5315.24,7750.41C5317.95,7593.87 5322.24,7437.03 5318.28,7280.66C5182.87,7258.24 5087.58,7158.62 5052.12,7028.95C4891.28,7033.24 4730.16,7004.49 4570.12,7026.58Z" style="fill:rgb(102,191,114);"/>
    <g transform="matrix(4.16667,0,0,4.16667,-18502.5,-4968.34)">
        <path d="M5316.53,2345.79C5323.2,2300.47 5315.5,2251.28 5335.3,2208.91C5358.03,2253.29 5342.46,2302.87 5338.27,2349.48C5344.22,2351.01 5356.19,2354.14 5362.18,2355.74C5360.66,2315.7 5365,2275.83 5366.68,2235.95C5412.03,2241.66 5456.96,2250.71 5500.35,2265.08C5503.07,2285.14 5506.93,2305.02 5511.35,2324.77C5463.93,2346.43 5412.91,2365.05 5359.7,2357.99C5376.71,2366.19 5393.31,2375.15 5409.36,2385.03C5469.16,2367.14 5530.04,2334.57 5593.91,2355.74C5594.87,2359.98 5596.88,2368.59 5597.84,2372.82C5574.65,2382.86 5549.86,2388.08 5526.1,2396.43C5555.55,2399.56 5581.55,2382.14 5609.48,2375.95C5635.38,2377.71 5657.69,2392.81 5681.68,2401.31C5691.96,2405.09 5702.38,2408.53 5712.98,2411.84C5643,2459.48 5558.94,2478.74 5481.98,2512.04C5457.68,2522.37 5431.18,2527.44 5408.56,2541.56C5393.31,2546.7 5377.03,2549.49 5363.4,2558.25C5369.5,2586.41 5379.84,2615.47 5370.69,2644.26C5361.72,2683.65 5326.33,2710.69 5288.38,2719.51C5267.75,2715.35 5248.42,2707.23 5230.53,2696.32C5220.42,2689.5 5211.11,2698.11 5204.14,2704.67C5181.67,2725.76 5153.91,2739.99 5131.29,2760.92C5080.41,2808.9 5026.83,2854.22 4969.62,2894.5C4979.49,2829.99 4983.16,2764.44 4976.83,2699.45C4970.81,2662.72 4964.16,2622.36 4936.63,2594.83C4941.28,2571.8 4969.77,2568.29 4986.93,2556.65C5027.94,2537.55 5063.4,2508.18 5105.62,2491.51C5122.7,2512.91 5144.68,2541.4 5175.8,2535.46C5206.31,2523.51 5211.99,2488.85 5220.57,2461.32C5232.29,2463.49 5244.56,2463.98 5255.81,2468.55C5272.97,2480.42 5280.53,2501.51 5296.55,2514.59C5317.41,2514.78 5334.91,2502 5351.69,2491.25C5402.39,2454.75 5461.35,2432.44 5515.61,2401.96C5434.42,2408.06 5376.87,2472.48 5302.58,2497.35C5283.96,2485.07 5272.56,2465.5 5267.18,2444.3C5290.63,2434.38 5313.4,2423.05 5336.36,2412.07C5312.68,2380.04 5263.98,2375.95 5249.14,2336.9C5271.76,2338.5 5294.14,2341.93 5316.53,2345.79Z" style="fill:rgb(102,191,114);"/>
    </g>
    <g transform="matrix(4.16667,0,0,4.16667,-18502.5,-4968.34)">
        <path d="M5517.68,2264.02C5608.18,2294.68 5700.28,2320.53 5793.04,2343.69C5855.31,2357.27 5914.85,2380.61 5974.92,2401.31L5983.43,2404.52C6024.92,2415.35 6056.27,2444.87 6092.24,2466.15C6096.81,2490.06 6125.95,2489.88 6142.85,2501.92C6163.32,2513.07 6172.48,2484.35 6184.26,2473.28C6194.78,2454.75 6217.71,2452.73 6236.66,2455.16C6241.71,2485.15 6256.72,2522.29 6290.74,2527.59C6318.97,2526.79 6335.26,2500.97 6346.81,2478.58C6411.57,2504.17 6466.52,2549.49 6530.79,2576.94C6496.13,2608.64 6481.6,2655.4 6479.76,2701.23C6469.32,2764.52 6479.35,2828.47 6482.74,2892.02C6441.81,2858.64 6379.7,2799.56 6359.81,2781.45C6320.18,2745.36 6275.42,2715.74 6234.57,2681.25C6208.48,2688.47 6183.31,2707.33 6155.13,2699.94C6122.71,2695.86 6090.3,2671.3 6085.41,2637.77C6063.91,2629.01 6041.7,2645.29 6019.54,2637.28C5953.1,2628.7 5923.97,2550.94 5933.38,2491.74C5957.45,2495.1 5947.42,2523.82 5951.35,2540.37C5950.29,2576.94 5977.97,2605.82 6007.68,2623.17C6034.79,2622.67 6061.75,2626.37 6088.23,2631.98C6062.71,2611.04 6086.86,2574.05 6089.5,2546.7C6034.38,2522.71 5979.91,2496.78 5922.55,2478.66C5850.01,2456.43 5781.89,2422.64 5710.01,2398.65C5659.86,2376.29 5606.19,2361.2 5558.52,2333.43C5534.04,2318.44 5525.38,2289.87 5517.68,2264.02Z" style="fill:rgb(102,191,114);"/>
    </g>
    <g transform="matrix(4.16667,0,0,4.16667,-18502.5,-4968.34)">
        <path d="M5428.62,2594.03C5416.6,2580.95 5398.14,2568.93 5403.44,2548.3C5422.52,2551.12 5447.08,2563.37 5445.32,2586.17C5439.79,2588.89 5434.23,2591.55 5428.62,2594.03Z" style="fill:rgb(102,191,114);"/>
    </g>
    <g transform="matrix(4.16667,0,0,4.16667,-18502.5,-4968.34)">
        <path d="M5940.03,1360.28C5964.27,1304.52 6000.44,1254.21 6036.14,1205.12C6031.48,1267.14 6024.12,1329 6014.4,1390.37C5989.46,1380.68 5965.46,1368.63 5940.03,1360.28Z" style="fill:rgb(102,191,114);"/>
    </g>
    <g transform="matrix(4.16667,0,0,4.16667,-18502.5,-4968.34)">
        <path d="M4948.27,1327.32C4964.88,1355.24 4966.96,1388.77 4980.83,1417.91C5005.47,1430.08 5037.58,1445.82 5034.34,1478.78C5013.66,1471 4999.45,1451.92 4977.06,1447.58C4977.17,1461.46 4974.19,1476.3 4979.72,1489.62C5019.35,1527.74 5079.2,1516.11 5128.89,1525.73C5120.12,1533.51 5111.15,1541.06 5101.28,1547.24C5049.86,1558.06 5004.02,1529.58 4956.84,1514.82C4979.23,1544.26 5015.84,1555.32 5047.69,1571.07C5059.89,1576.91 5070.31,1585.83 5080.72,1594.34C5084.5,1591.28 5091.89,1585.34 5095.58,1582.36C5098.72,1594.08 5123.58,1604.6 5123.17,1611.09C5129.84,1612.53 5142.99,1615.51 5149.67,1617.03C5143.95,1627.21 5138.27,1637.5 5132.66,1647.77C5112.6,1646.24 5092.53,1644.87 5072.56,1643.27C5043.19,1635.07 5012.6,1632.36 4982.28,1630.6C5024.81,1679.12 5072.63,1724.55 5130.23,1754.63C5130,1774.28 5129.61,1793.95 5129.12,1813.68C5091.73,1819.62 5051.46,1818.98 5018.47,1798.04C4997.38,1784.49 4973.13,1777.82 4948.03,1779.99C4980.76,1831.41 5045.03,1844.98 5099.03,1863.02C5117.97,1886.29 5107.14,1919.84 5107.14,1947.27C5079.04,1940.45 5051.13,1932.74 5022.72,1927.22C5045.9,1946.16 5072.4,1960.35 5100.24,1971.03C5097.5,1999.19 5092.69,2027.1 5088.68,2055.1C5067.02,2048.61 5045.36,2042.02 5023.62,2035.6C5014.46,2054.37 5006.76,2073.71 4999.94,2093.46C5024.58,2104.29 5050.97,2109.98 5076.64,2118.02C5076.49,2171.04 5063.48,2223.12 5058.75,2275.83C5045.1,2354.06 5037.89,2433.4 5018.16,2510.51C5006.76,2513.56 4995.37,2516.92 4983.81,2519.43C4944.34,2508.1 4907.34,2485.87 4864.66,2489.42C4856.08,2471.99 4843.73,2455.06 4822.63,2453.46C4861.77,2368.67 4950.82,2327.33 5013.74,2263.4C4923.63,2296.77 4843.33,2357.5 4786.67,2435C4751.54,2429 4743.76,2381.75 4710.13,2375.15C4661.68,2380.45 4612.75,2398.49 4564.51,2380.84C4553.68,2361.12 4544.45,2337.21 4523.59,2326.14C4496.01,2322.75 4468.4,2330.8 4440.71,2327.98C4448.49,2308.87 4453.71,2282.4 4476.67,2275.83C4513.89,2265.31 4551.92,2281.86 4589.72,2278.81C4620.84,2279.92 4644.34,2256.24 4672.02,2245.97C4694.98,2235.49 4720.8,2243.65 4744.72,2238.27C4760.28,2221.18 4766.07,2195.9 4787.47,2184.2C4825.11,2160.77 4867.22,2146.17 4906.31,2125.64C4906.8,2121.53 4907.75,2113.44 4908.22,2109.33C4849.83,2134.23 4788.69,2166.72 4723.13,2150.02L4718.74,2154.11C4700.17,2176.57 4675.64,2198 4644.18,2190.63C4640.1,2170.65 4637.85,2150.1 4630.94,2130.84C4616.57,2121.53 4599.33,2120.42 4582.73,2120.73C4569.81,2131.98 4556.08,2142.39 4541.74,2151.78C4520.88,2132.86 4495.02,2121.53 4469.77,2109.98C4514.54,2070.35 4577.67,2079.01 4631.36,2062C4636.97,2053.99 4642.58,2045.97 4648.19,2038.01C4671.22,2031.83 4694.98,2032.17 4718.48,2029.84C4751.69,2024.13 4759.09,1985.07 4785.79,1969.35C4825.5,1948 4871.98,1947.2 4913.85,1932.1C4924.77,1928.17 4931.33,1918.63 4935.98,1908.6C4872.86,1913.02 4813.48,1940.21 4749.94,1942.85C4696.97,1946.4 4640.82,1962.52 4590.03,1939.49C4573.89,1934.35 4567.41,1917.67 4559.39,1904.6C4615.07,1872.34 4680.6,1894.33 4740.06,1878.51C4793.34,1868.64 4837.86,1836.4 4879.5,1803.65C4826.48,1815.85 4771.03,1819.94 4717.29,1810.24C4679,1804.45 4648.53,1777.51 4621.95,1751.17C4706.92,1741.48 4800.71,1768.59 4878.24,1721.99C4904.86,1709.47 4887.93,1676.8 4888.81,1654.59C4905.51,1649.86 4926.45,1651.39 4938.31,1636.52C4879.68,1624.35 4833.54,1667.99 4780.83,1683.54C4737.74,1695.33 4701.88,1664.29 4662.07,1654.75C4677.17,1618.71 4724.58,1612.79 4759.16,1615.04C4782.35,1612.79 4800.63,1635.33 4823.59,1630.6C4840.75,1618.33 4841.55,1596.25 4847.09,1577.79C4869.55,1564.56 4895.71,1559.51 4919.7,1549.64C4860.34,1539.84 4810.74,1588.39 4751.77,1581.48C4779.04,1532.39 4841.97,1536.4 4887.36,1515.7C4895.4,1480.87 4921.38,1455.85 4940.89,1427.36C4933.12,1428.66 4925.34,1429.84 4917.53,1431.06C4907.26,1445.18 4901.01,1463.79 4884.72,1472.37C4876.06,1419.97 4938.39,1400.4 4944.83,1353.22C4945.71,1346.74 4947.39,1333.81 4948.27,1327.32Z" style="fill:rgb(102,191,114);"/>
    </g>
    <g transform="matrix(4.16667,0,0,4.16667,-18502.5,-4968.34)">
        <path d="M5940.11,1375.76C5965.96,1381.48 5991.21,1390.14 6013.29,1405.05C6011.53,1446.78 6012.48,1488.58 6012.33,1530.3C5976.63,1554.94 5941.48,1580.45 5905.36,1604.52C5836.37,1652.27 5769.7,1703.45 5698.68,1748.23L5698.22,1736.25C5727.89,1685.07 5777.71,1651.62 5818.89,1610.77C5858.52,1575.46 5892.7,1534.64 5932.17,1499.33C5946.13,1460.35 5937.54,1416.69 5940.11,1375.76ZM5949.82,1387.01C5949.18,1423.51 5948.38,1459.94 5948.76,1496.44C5953.98,1499.26 5964.27,1504.86 5969.47,1507.68C5976.94,1509.44 5984.56,1511.12 5992.12,1512.72C5993.46,1476.64 5990.67,1440.6 5990.75,1404.56C5977.9,1396.89 5964.43,1390.3 5949.82,1387.01Z" style="fill:rgb(102,191,114);"/>
    </g>
    <g transform="matrix(4.16667,0,0,4.16667,-18502.5,-4968.34)">
        <path d="M6029.34,1398.23C6065.12,1389.8 6099.22,1375.12 6135.79,1369.74C6134.83,1395.36 6132.82,1421.03 6132.59,1446.7C6146.39,1446.62 6160.27,1446.29 6174.23,1445.98C6170.69,1460.58 6167.25,1475.27 6163.71,1489.87C6144.38,1551.66 6130.49,1615.04 6109.97,1676.49C6025.41,1703.91 5938.99,1724.96 5853.63,1749.41C5851.77,1881.87 5860.2,2014.66 5850.09,2146.97C5843.84,2118.02 5841.82,2088.39 5841.1,2058.87C5833.96,1958.18 5847.76,1857.57 5843.76,1756.81C5825.87,1759.44 5808.21,1763.29 5790.56,1766.83C5793.61,1885.72 5790.07,2004.56 5790.97,2123.47C5791.44,2140.4 5788.31,2157.16 5782.85,2173.21C5777.24,2151.63 5774.58,2129.39 5776.03,2107.19C5781.25,1992.77 5782.54,1878.13 5772.75,1764.02C5768.82,1764.43 5761.12,1765.38 5757.18,1765.86C5750.77,1782.63 5750.05,1800.52 5751,1818.33C5749.14,1888.05 5753.64,1957.87 5748.68,2027.59C5738.73,2010.43 5737.51,1990.36 5739.3,1971.03C5743.87,1914.78 5737.77,1858.53 5739.84,1802.2C5740.9,1788.08 5739.04,1773.97 5731.26,1761.84C5697,1768.83 5715.46,1802.46 5715.05,1825.96C5714.66,1874.51 5719.54,1924.01 5707.68,1971.67C5687.62,1904.75 5706,1833.89 5700.62,1765.31C5756.61,1718.22 5817.86,1678.32 5877.7,1636.47C5891.28,1626.97 5904.78,1617.38 5918.13,1607.57C5955.2,1580.11 5995.06,1555.51 6027.63,1522.68C6028.69,1481.21 6023.7,1439.72 6029.34,1398.23Z" style="fill:rgb(102,191,114);"/>
    </g>
    <g transform="matrix(4.16667,0,0,4.16667,-18502.5,-4968.34)">
        <path d="M6549.97,1439.31C6557.57,1445.1 6565.12,1450.94 6572.83,1456.8C6576.76,1453.03 6584.61,1445.41 6588.65,1441.56C6597.77,1460.97 6606.46,1480.95 6607.26,1502.77C6613.18,1502.07 6625.07,1500.7 6630.99,1500.06C6634.69,1507.76 6638.54,1515.39 6642.54,1523.09C6650.74,1524.92 6659.01,1526.94 6667.33,1528.93C6666.15,1537.85 6665.01,1546.74 6663.9,1555.74C6650.33,1565.44 6636.29,1574.51 6623.62,1585.42C6617.29,1606.61 6651.38,1593.04 6661.34,1599.53C6656.5,1606.04 6651.85,1612.53 6647.28,1619.21C6651.93,1622.64 6661.26,1629.62 6665.91,1633.16C6656.2,1647.2 6642.16,1657.15 6629.8,1668.63C6628.59,1683.77 6648.57,1681.94 6657.95,1687.88C6655.06,1704.9 6658.68,1723.02 6653.56,1739.54C6635.75,1764.74 6614.78,1787.77 6598.58,1814.24C6608.79,1816.42 6618.97,1818.51 6629.23,1820.74C6634.12,1836.32 6648.57,1840.72 6663.17,1842.09C6663.82,1854.06 6664.13,1866 6664.62,1878.05C6670.64,1878.36 6682.67,1879 6688.69,1879.31C6690.44,1904.18 6693.73,1932.36 6716.76,1947.2C6726.4,1960.85 6742.77,1941.82 6737.7,1930.26C6738.35,1903.64 6715.88,1884.3 6709.94,1859.51C6715.16,1847.7 6720.87,1836.14 6722.94,1823.32C6718.21,1821.15 6708.9,1816.98 6704.25,1814.81C6705.54,1784.15 6706.42,1753.34 6704.9,1722.71C6691.97,1699.75 6673.04,1663.97 6693.73,1641.26C6705.39,1626.41 6712.6,1648.65 6716.91,1657.3C6726.07,1672.56 6741.7,1682.66 6752.46,1696.86C6753.36,1721.03 6749.02,1745.17 6750.24,1769.47C6754.07,1768.75 6761.77,1767.3 6765.62,1766.58C6775.57,1751.51 6789.22,1738.34 6809.13,1741.48C6806.31,1766.58 6803.91,1795.32 6783.12,1812.8C6765.46,1827.97 6756.24,1850.44 6759.78,1873.63C6790.67,1866.49 6796.77,1818.9 6834.88,1829.58C6830.14,1838.72 6825.41,1847.96 6820.6,1857.16C6823.88,1859.1 6830.53,1863.02 6833.92,1864.96C6821.94,1879.24 6806.16,1892.39 6804.55,1912.3C6840.33,1913.17 6853.9,1869.05 6889.52,1868.56C6890.56,1887.24 6876.03,1899.22 6863.59,1910.69C6863.36,1915.58 6862.72,1925.38 6862.38,1930.26C6887.43,1926.83 6912.07,1920.72 6937.01,1916.15C6934.76,1933.08 6933.8,1952.81 6920.49,1965.32C6906.61,1979.35 6890.87,1993.08 6886.37,2013.29C6895.52,2017.07 6904.75,2020.84 6914.05,2024.7C6904.28,2047.16 6889.42,2069.96 6862.64,2072.83C6868.66,2114.63 6848.68,2152.84 6820.34,2181.95C6816.83,2183.01 6809.93,2185.07 6806.47,2186.14C6806.47,2204.67 6806.47,2223.2 6806.39,2241.82C6810.16,2238.2 6817.71,2230.91 6821.56,2227.29C6833.74,2242.69 6840.71,2264.44 6831.26,2283.05C6818.66,2303.27 6794.37,2310.66 6772.21,2314.09C6775.18,2332.06 6796.04,2332.4 6809.44,2338.5C6809.05,2348.76 6808.87,2359.1 6807.68,2369.47C6786.66,2378.77 6762.98,2379.81 6740.83,2385.11C6748.53,2387.85 6756.24,2390.48 6764.02,2393.27C6766.91,2408.94 6778.06,2420.73 6784.72,2434.85C6748.38,2436.37 6707.61,2421.45 6674.65,2441.44C6662.86,2447.04 6663.9,2458.99 6664.28,2470C6677.37,2471.34 6690.44,2472.71 6703.61,2474.24C6708.83,2490.06 6722.94,2502.34 6721.75,2520.15C6703.61,2525.42 6684.84,2525.84 6666.61,2520.85C6656.04,2545.33 6645.05,2586.9 6612.64,2586.82C6565.38,2560.25 6508.41,2553.6 6466.68,2517.1C6441.24,2498.3 6426.49,2469.51 6415.88,2440.56C6406.27,2438.54 6396.63,2436.71 6387.01,2434.85C6347.69,2439.27 6281.02,2453.53 6267.29,2402.68C6313.51,2382.94 6375.95,2377.25 6396.24,2323.09C6368.32,2334.31 6348.26,2358.3 6323.63,2375C6302.69,2382.94 6280.22,2384.07 6257.99,2383.58C6241.39,2358.56 6223.43,2331.26 6228.08,2299.65C6226.22,2276.63 6253.03,2261.15 6246.2,2237.7C6280.3,2248.79 6313.51,2225.76 6347.22,2233.05C6368.96,2252.16 6384.84,2276.87 6406.92,2295.82C6418.13,2314.43 6428.09,2334.39 6445.98,2347.96C6446.39,2359.1 6446.62,2370.19 6446.86,2381.34C6437.01,2399.22 6420.46,2416.65 6424.81,2438.77C6446.46,2449.21 6461.38,2428.67 6478.73,2423.21C6493.88,2437.74 6522.6,2453.79 6535.52,2427.22C6541.21,2398.49 6522.6,2373.47 6517.29,2346.28C6535.83,2344.18 6555.09,2341.47 6571.87,2351.81C6604.21,2349.97 6602.68,2306.01 6584.15,2287.55C6575.15,2265.08 6550.36,2270.04 6531.18,2270.61C6521.56,2263.33 6511.69,2256.24 6502.88,2248.07C6503.6,2218.78 6531.26,2197.84 6530.56,2167.67C6512.56,2160.36 6493.41,2158.94 6474.54,2155.81C6462.83,2150.51 6470.77,2138.39 6472.71,2129.89C6483.38,2128.44 6494.03,2126.99 6504.71,2125.54C6502.62,2106.93 6499.1,2088.57 6495.56,2070.19C6369.59,2116.23 6238.91,2148.26 6114.46,2198.57C6054.52,2221.91 5991.29,2236.36 5932.32,2262.11C5949.75,2278.55 5938.19,2305.85 5924.46,2320.35C5898.15,2323.55 5875.76,2306.24 5850.97,2300.37C5863.33,2278.55 5895.33,2285.3 5914.36,2270.61C5868.06,2279.77 5817.44,2300.62 5772.18,2276.48C5873.51,2234.76 5980.56,2208.11 6081.4,2164.78C6160.5,2136.86 6242.19,2116.88 6321.71,2089.92C6399.68,2060.81 6481.86,2043.95 6559.51,2013.71C6563.05,2024.62 6566.64,2035.6 6570.42,2046.51C6549.25,2052.39 6527.98,2058.56 6507.91,2067.45C6536.97,2088.96 6569.23,2067.37 6600.67,2069.47C6611.5,2091.28 6602.53,2116.65 6605.74,2140.07C6616.49,2146.25 6628.66,2149.3 6640.48,2153.49C6643.53,2174.81 6624.73,2216.15 6658.83,2216.04C6659.4,2250.32 6624.81,2267.79 6619.61,2299.25C6659.25,2293.23 6668.39,2243.8 6703.86,2228.58C6692.46,2194.56 6691.97,2144.41 6650.25,2132.86C6649.29,2119.85 6647.84,2107 6631.9,2107C6631.41,2102.85 6630.53,2094.49 6630.11,2090.25C6634.84,2089.11 6644.33,2086.71 6649.06,2085.52C6645.36,2078.7 6641.74,2071.95 6638.23,2065.2C6641.59,2061.84 6648.33,2055.1 6651.7,2051.74C6635.26,2033.93 6628.59,2010.35 6620.72,1988.04C6615.42,1982.33 6610.39,1976.49 6605.55,1970.46C6611.65,1962.6 6618.55,1955.55 6624.81,1947.76C6624.01,1934.68 6618.32,1922.72 6614.47,1910.43C6604.21,1909.97 6593.84,1909.48 6583.66,1909.17C6575.15,1920.47 6566.57,1931.79 6558.06,1943.19C6531.9,1949.53 6521.23,1922.8 6507.91,1906.04C6493.49,1891.82 6508.79,1872.82 6511.61,1857.08C6502.88,1853 6494.21,1848.99 6485.53,1844.98C6485.6,1832.29 6485.79,1818.82 6502.54,1821.07C6493.64,1794.6 6536.97,1795.79 6527.98,1768.52C6512.49,1750.63 6486.25,1753.76 6465.15,1749.03C6464.28,1745.41 6462.44,1738.19 6461.54,1734.57C6467.09,1733.69 6478.01,1731.86 6483.54,1730.95C6474.62,1721.03 6465.8,1711.23 6457.53,1700.86C6470.61,1701.93 6483.69,1702.96 6496.85,1704.02C6496.93,1695.83 6497.08,1679.46 6497.24,1671.34C6484.8,1665.42 6471.98,1660.43 6458.75,1657.07C6447.27,1635.72 6434.26,1613.98 6439.07,1588.62C6456.16,1588.47 6479.69,1599.64 6488.03,1578.13C6495.48,1557.34 6474.39,1547.47 6461.15,1536.79C6461.8,1515.78 6461.15,1493.65 6473.74,1475.57C6487.7,1487.86 6499.41,1507.91 6519.73,1509.13C6546.67,1496.36 6544.02,1463.71 6549.97,1439.31ZM6542.65,1521.15C6543.54,1544.42 6549.41,1573.94 6570.65,1586.55C6582.05,1567.86 6567.94,1527.82 6542.65,1521.15ZM6564.09,1604.9C6548.45,1702 6565.46,1799.98 6568.66,1897.28C6574.76,1893.68 6582.93,1891.02 6583.81,1882.78C6593.84,1845.06 6569.05,1807.27 6580.38,1769.55C6586.86,1750.4 6574.27,1732.32 6571.71,1713.63C6563.13,1677.13 6583.99,1638.77 6570.19,1603.22C6568.66,1603.64 6565.61,1604.52 6564.09,1604.9ZM6651.23,1940.21C6660.92,1949.6 6671.91,1957.61 6684.11,1963.56C6682.82,2005.13 6712.26,2036.25 6725.27,2073.4C6725.6,2107.65 6730.72,2141.67 6730.33,2176.03L6735.14,2176.42C6734.57,2194.48 6746.2,2209.06 6757.61,2221.75C6777.18,2189.91 6761.04,2154.03 6745.01,2124.74C6743,2106.13 6742.12,2087.43 6742.61,2068.82L6739.95,2069.55C6724.23,2025.27 6713.17,1976.57 6676.82,1943.73C6668.32,1942.54 6659.74,1941.33 6651.23,1940.21ZM6807.19,1965.81C6797.15,1982.66 6793.56,2008.9 6812.9,2020.69C6816.57,2009.63 6823.08,1998.79 6822.36,1986.82C6820.91,1977.52 6821.3,1960.35 6807.19,1965.81ZM6797.8,2050.86C6787.13,2073.09 6791.24,2098.11 6791.7,2121.87C6826.29,2118.09 6813.94,2069.96 6797.8,2050.86ZM6532.32,2121.22C6571.79,2158.45 6553.75,2223.12 6593.84,2259.55C6575.64,2214.93 6595.29,2156.2 6556.23,2121.38C6548.19,2121.38 6540.25,2121.3 6532.32,2121.22ZM6739.38,2266.68C6709.14,2319.55 6664.7,2362.95 6617.36,2400.51C6613.36,2412.07 6613.1,2427.79 6600.1,2433.32C6569.38,2454.67 6539.45,2491.51 6544.67,2530.65C6589.45,2512.84 6589.03,2449.37 6637.17,2435.98C6652.73,2400.51 6674.96,2368.17 6703.86,2342.2C6730.26,2313.94 6766.68,2283.62 6762.83,2241.09C6752.8,2247.42 6745.09,2256.42 6739.38,2266.68Z" style="fill:rgb(102,191,114);"/>
    </g>
    <g transform="matrix(4.16667,0,0,4.16667,-18502.5,-4968.34)">
        <path d="M6189.48,1459.21C6239.87,1498.04 6293.46,1532.63 6343.2,1572.52C6347.69,1575.95 6356.61,1582.78 6361,1586.22C6382.59,1603.79 6402.57,1623.36 6424.39,1640.79C6424.81,1643.84 6425.69,1649.94 6426.17,1652.99C6326.37,1658.1 6226.63,1668.71 6126.49,1671.19C6137.81,1638.38 6144.56,1604.21 6155.7,1571.38C6167.49,1534.23 6174.16,1495.1 6189.48,1459.21Z" style="fill:rgb(102,191,114);"/>
    </g>
    <g transform="matrix(4.16667,0,0,4.16667,-18502.5,-4968.34)">
        <path d="M5159.59,1637.97C5239.83,1611.89 5318.55,1580.76 5400.21,1559.18C5501.23,1590.48 5604.41,1614.7 5706.39,1643.12C5700.28,1654.51 5693.95,1667.75 5681.13,1672.71C5659.7,1669.28 5639.23,1661.65 5618.29,1656.27C5590.86,1649.76 5564.05,1640.53 5536.37,1634.84C5480.61,1617.76 5423.66,1592.17 5364.2,1607.34C5331.94,1619.28 5302.42,1637.58 5269.84,1648.72C5244.33,1658.44 5217.94,1665.58 5192.19,1674.73C5183.84,1678.17 5175.34,1681.22 5166.75,1683.77C5161.69,1684.34 5151.5,1685.3 5146.44,1685.79C5147.32,1671.04 5148.14,1656.27 5149.57,1641.51L5159.59,1637.97Z" style="fill:rgb(102,191,114);"/>
    </g>
    <g transform="matrix(4.16667,0,0,4.16667,-18502.5,-4968.34)">
        <path d="M5271.94,1657.46C5313.33,1645.91 5347.91,1614.06 5392.04,1611.81C5448.52,1607.72 5500.02,1634.76 5553.22,1648.88C5594.94,1659.79 5635.38,1677.78 5679.03,1679.38C5680.64,1691.66 5677.9,1708.83 5663.94,1712.19C5642.77,1712.52 5622.71,1704.33 5602.73,1698.54C5546.47,1681.06 5489.29,1666.77 5432.24,1652.42C5375.68,1634.76 5314.13,1657.46 5269.35,1692.77C5304.02,1676.64 5339.64,1659.06 5378.89,1659.24C5366.11,1767.79 5367.64,1877.32 5362.75,1986.44C5358.26,2039.69 5353.68,2093.77 5337.63,2145.13C5442.42,2185.18 5548,2224.08 5656.81,2251.92C5709.6,2268.59 5762.95,2283.62 5815.5,2301.09C5882.66,2320.53 5949.82,2340.1 6014.81,2366.26C6057.72,2381.9 6095.67,2350.05 6134.68,2337.78C6157.53,2325.88 6183.46,2326.94 6208.41,2327.66C6207.6,2331.11 6206.08,2338.01 6205.28,2341.47C6179.69,2361.53 6148.57,2372.02 6119.66,2386.48C6119.92,2389.04 6120.23,2394.18 6120.46,2396.74C6147.76,2410.29 6174.96,2424.35 6204.17,2433.58C6192.92,2456.59 6171.42,2471.19 6153.6,2488.62C6100.51,2455.16 6046.58,2422.56 5987.21,2401.39C5901.27,2364.97 5811.65,2338.65 5721.64,2314.59C5669.65,2300.55 5619.81,2279.04 5566.95,2268.59C5542.16,2257.61 5516.49,2248.87 5490.4,2241.66C5397.49,2215.73 5308.91,2177.06 5217.52,2146.58C5151.01,2126.76 5085.06,2105.17 5019.12,2083.84C5022.97,2072.91 5026.83,2062 5030.68,2051.09C5082.51,2060.32 5130.33,2083.2 5180.3,2098.99C5219.13,2111.27 5257.72,2124.11 5296.63,2136.06C5306.58,2138.31 5317.25,2143.76 5326.9,2137.43C5335.41,2109.67 5332.74,2079.5 5337.39,2050.86C5341.74,1930.68 5353.68,1810.96 5356.5,1690.68C5321.44,1698.72 5286.86,1708.75 5253.49,1722.07C5246.09,1837.82 5205.51,1949.45 5147.65,2049.18C5141.39,2059.36 5133.2,2068.1 5125.65,2077.41C5120.61,2058.56 5119.96,2038.27 5132.89,2022.45C5179.91,1950.97 5213.75,1870.81 5230.45,1786.82C5235.83,1756.39 5240.87,1724.78 5233.09,1694.3C5224.19,1727.29 5224.84,1761.92 5217.06,1795.14C5201.73,1867.44 5172.68,1937.09 5132.24,1998.95C5131.86,1908.37 5165.23,1821.07 5163.7,1730.34C5156.31,1720.38 5153.26,1709.06 5154.48,1696.32C5164.74,1693.19 5174.93,1689.96 5185.11,1686.75C5197.96,1682.82 5210.47,1678.01 5222.9,1672.95C5239.45,1668.47 5255.63,1663.02 5271.94,1657.46Z" style="fill:rgb(102,191,114);"/>
    </g>
    <g transform="matrix(4.16667,0,0,4.16667,-18502.5,-4968.34)">
        <path d="M6775.73,2528.81C6780.07,2528.32 6788.73,2527.28 6793.07,2526.71C6798.68,2533.78 6804.37,2540.83 6810.16,2547.81C6802.38,2572.06 6776.86,2583.05 6766.68,2605.59C6772.86,2606.08 6785.22,2606.95 6791.39,2607.42C6790.98,2611.2 6790.25,2618.75 6789.87,2622.52C6785.86,2624.12 6777.82,2627.25 6773.81,2628.77C6775.49,2637.85 6777.35,2646.9 6779.19,2655.97C6773.24,2658.06 6761.46,2662.07 6755.51,2664.09C6741.32,2657.91 6728.16,2649.71 6716.04,2640.26C6708.83,2645.37 6701.77,2650.75 6694.86,2656.3C6694.37,2665.93 6704.48,2672.59 6708.26,2681.09C6693.65,2683.5 6679.07,2685.57 6664.47,2687.1C6668.63,2689.68 6676.9,2694.72 6680.99,2697.31C6681.4,2700.82 6682.28,2707.96 6682.67,2711.5C6664.39,2717.19 6644.4,2722.9 6636.86,2742.7C6629.72,2742.62 6622.66,2742.55 6615.69,2742.55C6614.47,2707 6626.34,2673.21 6630.27,2638.24C6645.67,2631.18 6661.57,2624.43 6678.82,2623.24C6712.52,2593.23 6745.58,2562.42 6775.73,2528.81Z" style="fill:rgb(102,191,114);"/>
    </g>
    <g transform="matrix(4.16667,0,0,4.16667,-18502.5,-4968.34)">
        <path d="M5390.59,1658.18C5453.02,1668.4 5512.87,1689.15 5574.49,1702.57C5597.42,1707.69 5620.3,1713.63 5643.26,1719.17C5643.49,1737.7 5644.22,1756.24 5644.94,1774.77C5651.04,1929.96 5651.99,2085.11 5651.76,2240.37C5558.45,2211.23 5467.45,2175.05 5373.74,2147.46C5373.51,1984.19 5390.36,1821.46 5390.59,1658.18Z" style="fill:rgb(102,191,114);"/>
    </g>
    <g transform="matrix(4.16667,0,0,4.16667,-18502.5,-4968.34)">
        <path d="M6125.04,1684.34C6142.93,1684.42 6351.47,1668.4 6438.35,1668.22C6431.78,1704.17 6431.55,1740.83 6432.82,1777.33C6435.07,1838.96 6430.11,1900.75 6434.68,1962.37C6436.1,1986.18 6432.89,2010.01 6432.43,2033.85C6381.14,2047.4 6332.05,2067.86 6280.94,2082.06C6229.42,2103.49 6174,2113.52 6118.86,2120.26C6121.99,2043.54 6117.67,1966.69 6123.7,1890.14C6125.69,1821.54 6123.93,1752.88 6125.04,1684.34Z" style="fill:rgb(102,191,114);"/>
    </g>
    <g transform="matrix(4.16667,0,0,4.16667,-18502.5,-4968.34)">
        <path d="M5998.3,1726.48C6019.23,1718.45 6040.97,1713.07 6063.02,1709.13C6061.58,1743.65 6060.7,1778.13 6061.42,1812.64C6042.24,1815.61 6023.24,1818.98 6004.29,1822.6C5998.45,1790.9 5997.96,1758.56 5998.3,1726.48Z" style="fill:rgb(102,191,114);"/>
    </g>
    <g transform="matrix(4.16667,0,0,4.16667,-18502.5,-4968.34)">
        <path d="M5901.51,1748.69C5920.54,1744.61 5939.72,1741.07 5958.97,1738.5C5965.23,1771.65 5965.7,1805.59 5959.7,1838.8C5940.52,1842.57 5921.18,1845.3 5901.77,1846.67C5893.42,1814.4 5893.65,1781.03 5901.51,1748.69Z" style="fill:rgb(102,191,114);"/>
    </g>
    <g transform="matrix(4.16667,0,0,4.16667,-18502.5,-4968.34)">
        <path d="M5113.06,2131.56C5120.22,2137.59 5123.66,2145.21 5123.33,2154.44C5126.22,2202.26 5114.28,2249.03 5105.85,2295.71C5092.92,2358.79 5087.88,2423.21 5072.63,2485.87C5068.94,2497.58 5066.61,2513.33 5050.97,2515.16C5062.03,2429.8 5073.28,2344.34 5087.62,2259.48C5096.05,2216.87 5090.03,2170.23 5113.06,2131.56Z" style="fill:rgb(102,191,114);"/>
    </g>
    <g transform="matrix(4.16667,0,0,4.16667,-18502.5,-4968.34)">
        <path d="M6005.89,2576.06C6008.3,2554.07 6030.86,2542.36 6050.93,2540.99C6048.34,2561.62 6028.36,2584.65 6005.89,2576.06Z" style="fill:rgb(102,191,114);"/>
    </g>
    <g transform="matrix(4.16667,0,0,4.16667,-18502.5,-4968.34)">
        <path d="M5501,2546.28C5504.21,2534.27 5496.27,2514.44 5515.84,2512.84C5515.43,2542.05 5517.44,2574.31 5500.12,2599.64C5476.29,2641.29 5425.1,2661.99 5378.47,2655.81C5382.02,2631.26 5407.61,2639.69 5424.61,2635.83C5468.51,2632.21 5498.18,2587.36 5501,2546.28Z" style="fill:rgb(102,191,114);"/>
    </g>
    <g transform="matrix(4.16667,0,0,4.16667,-18502.5,-4968.34)">
        <path d="M4859.21,2632.47C4875.65,2620.27 4891.39,2606.15 4910.8,2598.68C4943.46,2621.15 4957.18,2663.75 4963.67,2701.31C4977.71,2770.46 4964.71,2840.75 4954.44,2909.43C4933.04,2905.58 4920.84,2886.56 4911.37,2868.75C4876.71,2795.1 4858.48,2713.98 4859.21,2632.47Z" style="fill:rgb(102,191,114);"/>
    </g>
</svg>
